<svg width="57" height="61" viewBox="0 0 57 61" fill="none" xmlns="http://www.w3.org/2000/svg">
<path d="M0.466142 43.5645C-0.525651 41.8996 0.159271 39.7421 1.92982 38.954L17.6115 31.9743C18.5593 31.5524 19.652 31.6108 20.5495 32.1313L29.5103 37.3281C30.403 37.8458 30.9951 38.7584 31.1041 39.7847L32.9337 57.0159C33.1377 58.9374 31.6227 60.6079 29.6905 60.592L22.4417 60.5324C20.4909 60.5164 18.9981 58.7901 19.2638 56.8574L20.7133 46.312C20.8322 45.447 20.4151 44.5962 19.6584 44.1605C18.9007 43.7241 17.9541 43.7912 17.2655 44.3299L9.01014 50.7888C7.4754 51.9896 5.23521 51.5707 4.23797 49.8966L0.466142 43.5645Z" fill="white"/>
<path fill-rule="evenodd" clip-rule="evenodd" d="M34.52 36.8565L48.3777 47.05C49.1623 47.6271 50.2753 47.3849 50.7491 46.5338L54.3402 40.0827C54.8131 39.2332 54.435 38.1614 53.5336 37.7968L43.7151 33.8247C42.2931 33.2495 41.3625 31.869 41.3625 30.3351C41.3625 28.8109 42.2816 27.4372 43.6904 26.8556L53.5433 22.7883C54.4402 22.4181 54.8115 21.347 54.3361 20.5011L50.7579 14.1333C50.282 13.2864 49.1721 13.0472 48.3896 13.6228L34.52 23.8247C34.1056 24.1295 33.861 24.6132 33.861 25.1276V35.5537C33.861 36.068 34.1056 36.5517 34.52 36.8565ZM33.5616 38.1593C32.733 37.5497 32.2437 36.5824 32.2437 35.5537V25.1276C32.2437 24.0988 32.733 23.1314 33.5617 22.5219L47.4313 12.32C48.9964 11.1687 51.216 11.6472 52.1678 13.341L55.7461 19.7088C56.6968 21.4005 55.9542 23.5428 54.1604 24.2833L44.3076 28.3506C43.504 28.6823 42.9798 29.4658 42.9798 30.3351C42.9798 31.21 43.5106 31.9973 44.3216 32.3254L54.1402 36.2975C55.9428 37.0267 56.6992 39.1703 55.7534 40.8693L52.1622 47.3204C51.2147 49.0226 48.9886 49.5071 47.4193 48.3528L33.5616 38.1593Z" fill="#2DEBFC"/>
<path d="M29.5102 23.2341C30.4029 22.7163 30.995 21.8037 31.104 20.7775L32.9304 3.57619C33.1356 1.64409 31.6031 -0.0316279 29.6604 0.000453193L22.4106 0.120174C20.4708 0.152208 18.9953 1.87284 19.2595 3.79487L20.7127 14.3668C20.8319 15.2341 20.4136 16.0871 19.6549 16.5238C18.8986 16.9591 17.9543 16.8944 17.2646 16.3599L8.8959 9.87569C7.35746 8.68367 5.12234 9.11028 4.13108 10.7851L0.45195 17.0015C-0.533272 18.6661 0.153104 20.8176 1.92032 21.6041L17.6114 28.5878C18.5592 29.0097 19.6519 28.9513 20.5494 28.4308L29.5102 23.2341Z" fill="#2C85FC"/>
</svg>
